<svg height="16" viewBox="0 0 16 16" width="16" xmlns="http://www.w3.org/2000/svg"><style>
  path {
    fill: #273240;
  }
  @media (prefers-color-scheme: dark) {
    path { fill: #ffffff; }
  }
</style><path d="m12 1c-.265625 0-.519531.105469-.707031.292969-.390625.390625-.390625 1.023437 0 1.414062l1.292969 1.292969h-7.585938c-.550781 0-1 .449219-1 1s.449219 1 1 1h7.585938l-1.292969 1.292969c-.390625.390625-.390625 1.023437 0 1.414062s1.023437.390625 1.414062 0l3-3c.390625-.390625.390625-1.023437 0-1.414062l-3-3c-.1875-.1875-.441406-.292969-.707031-.292969zm-8 6c-.257812 0-.511719.097656-.707031.292969l-3 3c-.3906252.390625-.3906252 1.023437 0 1.414062l3 3c.1875.1875.441406.292969.707031.292969s.519531-.105469.707031-.292969c.390625-.390625.390625-1.023437 0-1.414062l-1.292969-1.292969h7.585938c.550781 0 1-.449219 1-1s-.449219-1-1-1h-7.585938l1.292969-1.292969c.390625-.390625.390625-1.023437 0-1.414062-.195312-.195313-.449219-.292969-.707031-.292969zm0 0" fill="#2e3436"/></svg>